<svg width="200" height="200" viewBox="0 0 200 200" xmlns="http://www.w3.org/2000/svg">
    <pattern id="ai-icons" x="0" y="0" width="100" height="100" patternUnits="userSpaceOnUse">
        <!-- Sparkle (Gemini-ish) -->
        <path d="M20 10 L22 18 L30 20 L22 22 L20 30 L18 22 L10 20 L18 18 Z" fill="none" stroke="rgba(255,255,255,0.03)" stroke-width="1.5" />
        
        <!-- Hexagon Info (ChatGPT/GPT-ish) -->
        <path d="M70 15 L80 20 V32 L70 37 L60 32 V20 L70 15 Z" fill="none" stroke="rgba(255,255,255,0.03)" stroke-width="1.5" />
        <circle cx="70" cy="26" r="2" fill="rgba(255,255,255,0.03)" />
        
        <!-- Brain/Cloud (Claude-ish) -->
        <path d="M25 70 C 20 70 15 75 15 80 C 15 85 18 88 22 89 C 22 92 25 95 30 95 C 35 95 38 92 38 88 C 42 87 45 83 45 78 C 45 73 40 70 35 70 Z" fill="none" stroke="rgba(255,255,255,0.03)" stroke-width="1.5" />
        
        <!-- Wave/Voice (11Labs-ish) -->
        <path d="M65 80 Q 70 70 75 80 T 85 80 T 95 80" fill="none" stroke="rgba(255,255,255,0.03)" stroke-width="1.5" />
        
        <!-- Grid Dots -->
        <circle cx="50" cy="50" r="1" fill="rgba(6, 182, 212, 0.05)" />
    </pattern>
    <rect width="100%" height="100%" fill="url(#ai-icons)" />
</svg>
